<svg fill="#FFFFFF" xmlns="http://www.w3.org/2000/svg" viewBox="0 0 64 64" width="64px" height="64px">
  <!-- <path d="M 8 8 C 6.355 8 5 9.355 5 11 L 5 37 C 5 38.645 6.355 40 8 40 L 40 40 C 41.645 40 43 38.645 43 37 L 43 11 C 43 9.355 41.645 8 40 8 L 8 8 z M 24 23.21875 L 11 13 L 37 13 L 24 23.21875 z M 8 15.78125 L 24 25 L 40 15.78125 L 40 37 L 8 37 L 8 15.78125 z"/> -->
  <path d="M38.5,10h-29C8.12,10,7,11.12,7,12.5v23C7,36.88,8.12,38,9.5,38h29c1.38,0,2.5-1.12,2.5-2.5v-23
    C41,11.12,39.88,10,38.5,10z M38,34H10V14l14,9l14-9V34z"/>
</svg>
